Normalized EMG Linear Envelopes
nRows=112
nColumns=4

endheader
time	 med_gas_r	  soleus_r	 tib_ant_r	
2.79133	  0.066740	  0.046600	  0.016162	
2.8629	  0.066884	  0.045534	  0.014738	
2.93448	  0.066538	  0.045695	  0.013547	
3.00605	  0.067755	  0.047055	  0.013142	
3.07762	  0.069710	  0.048330	  0.013381	
3.14919	  0.070246	  0.047907	  0.013742	
3.22077	  0.069752	  0.047230	  0.014108	
3.29234	  0.069077	  0.046876	  0.014422	
3.36391	  0.067910	  0.046363	  0.014303	
3.43548	  0.066522	  0.045551	  0.013896	
3.50706	  0.064956	  0.044936	  0.013472	
3.57863	  0.064609	  0.045706	  0.013390	
3.6502	  0.066970	  0.046988	  0.013690	
3.72177	  0.071124	  0.048128	  0.014010	
3.79335	  0.074116	  0.049100	  0.014221	
3.86492	  0.072133	  0.047663	  0.014386	
3.93649	  0.068247	  0.044398	  0.014626	
4.00806	  0.065356	  0.042259	  0.014777	
4.07964	  0.064852	  0.042620	  0.014948	
4.15121	  0.067431	  0.044835	  0.015314	
4.22278	  0.070367	  0.047257	  0.015647	
4.29435	  0.070764	  0.049532	  0.015909	
4.36593	  0.068426	  0.050695	  0.015859	
4.4375	  0.066391	  0.051533	  0.015798	
4.50907	  0.065792	  0.050824	  0.015485	
4.58065	  0.067059	  0.048007	  0.014658	
4.65222	  0.069886	  0.045801	  0.014076	
4.72379	  0.071448	  0.045240	  0.013942	
4.79536	  0.069693	  0.045245	  0.014028	
4.86694	  0.065708	  0.044001	  0.013763	
4.93851	  0.061891	  0.040481	  0.013306	
5.01008	  0.058259	  0.035603	  0.012577	
5.08165	  0.054752	  0.031708	  0.012086	
5.15323	  0.059501	  0.035284	  0.014189	
5.2248	  0.088024	  0.057853	  0.022716	
5.29637	  0.165992	  0.115933	  0.041365	
5.36794	  0.307448	  0.216924	  0.069197	
5.43952	  0.472337	  0.330670	  0.095370	
5.51109	  0.585303	  0.415794	  0.109317	
5.58266	  0.629077	  0.462633	  0.116384	
5.65423	  0.629928	  0.478911	  0.123093	
5.72581	  0.631159	  0.486902	  0.126526	
5.79738	  0.648190	  0.501887	  0.127465	
5.86895	  0.668793	  0.504892	  0.129781	
5.94052	  0.694847	  0.484462	  0.131997	
6.0121	  0.719880	  0.459689	  0.129159	
6.08367	  0.745617	  0.462510	  0.124636	
6.15524	  0.778032	  0.500799	  0.122190	
6.22681	  0.809691	  0.545593	  0.124068	
6.29839	  0.828962	  0.574640	  0.131481	
6.36996	  0.841510	  0.598728	  0.141717	
6.44153	  0.841699	  0.625643	  0.149231	
6.5131	  0.808137	  0.636504	  0.148920	
6.58468	  0.759938	  0.622084	  0.141829	
6.65625	  0.714154	  0.599504	  0.133785	
6.72782	  0.699549	  0.587283	  0.126828	
6.7994	  0.733741	  0.587114	  0.122630	
6.87097	  0.787053	  0.586381	  0.120530	
6.94254	  0.828481	  0.574852	  0.121594	
7.01411	  0.834349	  0.561412	  0.125837	
7.08569	  0.797058	  0.553252	  0.130756	
7.15726	  0.747365	  0.556210	  0.133621	
7.22883	  0.719242	  0.566450	  0.133012	
7.3004	  0.719707	  0.576747	  0.128751	
7.37198	  0.733284	  0.577660	  0.124893	
7.44355	  0.717530	  0.568018	  0.122151	
7.51512	  0.673284	  0.557491	  0.120767	
7.58669	  0.641024	  0.549318	  0.122337	
7.65827	  0.632197	  0.544031	  0.123821	
7.72984	  0.642417	  0.538066	  0.121720	
7.80141	  0.671136	  0.539473	  0.120527	
7.87298	  0.710402	  0.558076	  0.121884	
7.94456	  0.740414	  0.586632	  0.123613	
8.01613	  0.752154	  0.600670	  0.124334	
8.0877	  0.754235	  0.588638	  0.124087	
8.15927	  0.760517	  0.560400	  0.122432	
8.23085	  0.763612	  0.532001	  0.120662	
8.30242	  0.752884	  0.519011	  0.118046	
8.37399	  0.735674	  0.525163	  0.115552	
8.44556	  0.719179	  0.542741	  0.112862	
8.51714	  0.701835	  0.560455	  0.111310	
8.58871	  0.683781	  0.569232	  0.111512	
8.66028	  0.668068	  0.565985	  0.114593	
8.73185	  0.661866	  0.549828	  0.119257	
8.80343	  0.671671	  0.525364	  0.124673	
8.875	  0.671373	  0.501557	  0.127066	
8.94657	  0.664181	  0.495651	  0.122907	
9.01815	  0.649539	  0.512768	  0.115128	
9.08972	  0.631185	  0.531698	  0.108905	
9.16129	  0.619385	  0.543107	  0.108133	
9.23286	  0.619621	  0.552204	  0.109840	
9.30444	  0.620653	  0.553998	  0.107650	
9.37601	  0.617957	  0.537378	  0.104017	
9.44758	  0.615855	  0.522139	  0.104173	
9.51915	  0.615991	  0.518910	  0.107666	
9.59073	  0.615809	  0.516551	  0.111672	
9.6623	  0.604062	  0.503314	  0.112708	
9.73387	  0.582665	  0.472119	  0.110538	
9.80544	  0.566849	  0.422768	  0.107409	
9.87702	  0.541815	  0.388843	  0.105637	
9.94859	  0.515051	  0.374662	  0.104334	
10.0202	  0.487846	  0.358088	  0.100086	
10.0917	  0.443155	  0.331170	  0.091857	
10.1633	  0.362765	  0.285256	  0.079618	
10.2349	  0.253589	  0.212031	  0.063783	
10.3065	  0.156335	  0.137279	  0.050303	
10.378	  0.101978	  0.085744	  0.042410	
10.4496	  0.085260	  0.060440	  0.040585	
10.5212	  0.088356	  0.055464	  0.041865	
10.5927	  0.094689	  0.059941	  0.041856	
10.6643	  0.097694	  0.065019	  0.042280	
10.7359	  0.098453	  0.067327	  0.043099	
